<svg xmlns="http://www.w3.org/2000/svg" viewBox="0 0 512 512" fill="none">
  <rect width="512" height="512" rx="64" fill="#1a1a2e"/>
  <rect x="56" y="96" width="56" height="320" rx="4" fill="#e0e0e0" stroke="#333" stroke-width="2"/>
  <rect x="120" y="96" width="56" height="320" rx="4" fill="#e0e0e0" stroke="#333" stroke-width="2"/>
  <rect x="184" y="96" width="56" height="320" rx="4" fill="#e0e0e0" stroke="#333" stroke-width="2"/>
  <rect x="248" y="96" width="56" height="320" rx="4" fill="#e0e0e0" stroke="#333" stroke-width="2"/>
  <rect x="312" y="96" width="56" height="320" rx="4" fill="#e0e0e0" stroke="#333" stroke-width="2"/>
  <rect x="376" y="96" width="56" height="320" rx="4" fill="#e0e0e0" stroke="#333" stroke-width="2"/>
  <rect x="96" y="96" width="36" height="200" rx="3" fill="#1a1a2e" stroke="#333" stroke-width="1"/>
  <rect x="160" y="96" width="36" height="200" rx="3" fill="#1a1a2e" stroke="#333" stroke-width="1"/>
  <rect x="288" y="96" width="36" height="200" rx="3" fill="#1a1a2e" stroke="#333" stroke-width="1"/>
  <rect x="352" y="96" width="36" height="200" rx="3" fill="#1a1a2e" stroke="#333" stroke-width="1"/>
  <rect x="416" y="96" width="36" height="200" rx="3" fill="#1a1a2e" stroke="#333" stroke-width="1"/>
  <circle cx="284" cy="420" r="12" fill="#00e676"/>
</svg>
